<svg width="18" height="24" viewBox="0 0 18 24" fill="none" xmlns="http://www.w3.org/2000/svg">
<path d="M17 10V7C17 5.89543 16.1046 5 15 5H3C1.89543 5 1 5.89543 1 7V10M17 10V19C17 20.1046 16.1046 21 15 21H3C1.89543 21 1 20.1046 1 19V10M17 10H1M5 3V7M13 3V7" stroke="#7D7D7D" stroke-width="2" stroke-linecap="round"/>
<path d="M5.5 12H3.5C3.22386 12 3 12.2239 3 12.5V14.5C3 14.7761 3.22386 15 3.5 15H5.5C5.77614 15 6 14.7761 6 14.5V12.5C6 12.2239 5.77614 12 5.5 12Z" fill="#7D7D7D"/>
<path d="M10 12H8C7.72386 12 7.5 12.2239 7.5 12.5V14.5C7.5 14.7761 7.72386 15 8 15H10C10.2761 15 10.5 14.7761 10.5 14.5V12.5C10.5 12.2239 10.2761 12 10 12Z" fill="#7D7D7D"/>
<path d="M14.5 12H12.5C12.2239 12 12 12.2239 12 12.5V14.5C12 14.7761 12.2239 15 12.5 15H14.5C14.7761 15 15 14.7761 15 14.5V12.5C15 12.2239 14.7761 12 14.5 12Z" fill="#7D7D7D"/>
</svg>
