<svg width="353" height="220" viewBox="0 0 353 220" fill="none" xmlns="http://www.w3.org/2000/svg">
<g clip-path="url(#clip0_42_135)">
<path d="M127.692 0L72.3572 83.0086L51.0752 51.0817L0 127.708H212.82L127.692 0ZM153.516 119.226C147.002 124.825 138.427 127.624 127.791 127.624C116.158 127.624 106.998 123.708 100.311 115.875C93.6239 108.042 90.2881 97.2849 90.3034 83.6041V78.0539C90.3034 69.3202 91.8428 61.6298 94.9216 54.9828C97.7042 48.6893 102.299 43.3681 108.12 39.6988C113.84 36.1361 120.481 34.3547 128.043 34.3547C138.516 34.3547 146.954 37.154 153.355 42.7525C159.757 48.3511 163.457 56.2399 164.454 66.4191H145.753C145.295 60.5559 143.664 56.3061 140.86 53.6697C138.056 51.0333 133.783 49.71 128.043 49.6998C121.804 49.6998 117.137 51.9342 114.043 56.4028C110.949 60.8715 109.359 67.8035 109.272 77.1989V84.0698C109.272 93.8775 110.761 101.049 113.738 105.584C116.715 110.118 121.399 112.383 127.791 112.378C133.567 112.378 137.893 111.057 140.768 108.416C143.643 105.774 145.274 101.703 145.661 96.2009H164.37C163.638 105.942 160.019 113.617 153.516 119.226Z" fill="#232323"/>
<path d="M199.751 36.9122L223.064 102.766L246.262 36.9122H270.826V127.708H252.063V102.889L253.933 60.052L229.43 127.708H216.583L192.156 60.1131L194.026 102.866V127.685H175.324V36.9122H199.751Z" fill="#232323"/>
<path d="M334.237 103.889C334.237 100.351 332.99 97.6386 330.497 95.7504C328.003 93.8622 323.512 91.867 317.024 89.765C311.721 88.1482 306.569 86.0714 301.627 83.5583C291.322 77.9852 286.167 70.4908 286.162 61.075C286.099 56.3677 287.555 51.7656 290.314 47.9515C293.078 44.1038 297.047 41.1009 302.222 38.943C307.758 36.7119 313.682 35.6088 319.65 35.6983C325.613 35.5924 331.528 36.7937 336.977 39.2178C341.781 41.3334 345.88 44.7766 348.794 49.1425C351.617 53.481 353.082 58.5635 353 63.7394H334.298C334.298 59.5812 332.988 56.3468 330.367 54.0361C327.746 51.7255 324.069 50.5727 319.337 50.5778C314.757 50.5778 311.194 51.5448 308.65 53.4788C307.442 54.346 306.463 55.4942 305.798 56.8243C305.133 58.1544 304.802 59.6264 304.833 61.1132C304.833 64.0652 306.319 66.5387 309.291 68.5338C312.263 70.5289 316.637 72.4019 322.413 74.1527C333.054 77.349 340.807 81.3189 345.672 86.0624C348.051 88.3441 349.928 91.0972 351.184 94.1456C352.439 97.194 353.044 100.471 352.962 103.766C352.962 111.62 349.99 117.783 344.046 122.257C338.102 126.731 330.102 128.965 320.046 128.96C313.487 129.052 306.983 127.751 300.963 125.143C295.233 122.598 290.859 119.096 287.841 114.638C284.79 110.065 283.213 104.667 283.322 99.1706H302.085C302.085 109.187 308.072 114.195 320.046 114.195C324.489 114.195 327.96 113.292 330.458 111.485C331.675 110.637 332.658 109.497 333.318 108.17C333.979 106.842 334.295 105.37 334.237 103.889Z" fill="#232323"/>
<path d="M59.7926 209.732C57.0751 212.984 53.2329 215.509 48.2661 217.305C42.9609 219.156 37.3735 220.068 31.755 220C25.9243 220.13 20.1653 218.696 15.076 215.847C10.2544 213.036 6.39387 208.834 3.99991 203.792C1.40455 198.525 0.0712453 192.333 0 185.218V180.233C0 172.919 1.23407 166.585 3.70221 161.231C5.93435 156.148 9.66216 151.865 14.389 148.955C19.0352 146.115 24.4804 144.697 30.7245 144.702C39.4114 144.702 46.2051 146.774 51.1058 150.917C56.0064 155.059 58.9097 161.091 59.8155 169.01H45.0906C44.4189 164.816 42.9355 161.747 40.6403 159.803C38.3452 157.859 35.1824 156.884 31.152 156.879C26.0223 156.879 22.114 158.808 19.4271 162.666C16.7401 166.524 15.3813 172.262 15.3508 179.881V184.561C15.3508 192.252 16.8088 198.059 19.7248 201.983C22.6407 205.907 26.9205 207.869 32.5642 207.869C38.2384 207.869 42.2815 206.66 44.6937 204.243V191.623H30.9535V180.485H59.7926V209.732Z" fill="#232323"/>
<path d="M88.0744 218.992H72.9755V145.702H88.0744V218.992Z" fill="#232323"/>
<path d="M129.196 192.165H117.165V218.992H102.066V145.702H129.295C137.946 145.702 144.623 147.634 149.325 151.497C154.027 155.36 156.376 160.811 156.371 167.849C156.371 172.847 155.289 177.018 153.126 180.362C150.964 183.706 147.684 186.365 143.287 188.34L159.134 218.29V218.992H142.928L129.196 192.165ZM117.165 179.95H129.341C133.132 179.95 136.068 178.986 138.15 177.057C140.231 175.128 141.272 172.468 141.272 169.079C141.272 165.618 140.29 162.9 138.325 160.925C136.361 158.95 133.351 157.96 129.295 157.955H117.165V179.95Z" fill="#232323"/>
<path d="M193.965 200.822L210.576 145.702H227.369L201.851 218.992H186.11L160.699 145.702H177.454L193.965 200.822Z" fill="#232323"/>
<path d="M271.872 203.891H245.399L240.369 218.992H224.339L251.613 145.702H265.605L293.032 218.992H277.002L271.872 203.891ZM249.476 191.676H267.796L258.59 164.246L249.476 191.676Z" fill="#232323"/>
<path d="M337.855 199.769C337.921 198.507 337.677 197.249 337.144 196.103C336.612 194.958 335.808 193.959 334.802 193.196C332.766 191.669 329.143 190.058 323.932 188.363C319.652 187.059 315.493 185.383 311.505 183.355C303.174 178.861 299.014 172.804 299.024 165.185C298.973 161.386 300.145 157.671 302.367 154.589C304.839 151.318 308.18 148.808 312.008 147.344C316.478 145.548 321.261 144.661 326.077 144.733C330.892 144.646 335.668 145.615 340.069 147.573C343.947 149.276 347.258 152.052 349.611 155.574C351.89 159.075 353.072 163.176 353.008 167.353H337.901C337.901 163.994 336.845 161.383 334.733 159.52C332.621 157.658 329.652 156.726 325.825 156.726C322.141 156.726 319.273 157.508 317.222 159.07C316.25 159.772 315.464 160.701 314.932 161.776C314.4 162.851 314.138 164.04 314.169 165.239C314.169 167.621 315.37 169.616 317.772 171.224C320.174 172.832 323.705 174.344 328.367 175.759C336.957 178.339 343.214 181.543 347.138 185.37C349.058 187.213 350.573 189.435 351.586 191.896C352.6 194.357 353.089 197.002 353.023 199.662C353.023 206.009 350.626 210.984 345.832 214.587C341.038 218.191 334.578 219.995 326.451 220C321.157 220.071 315.909 219.014 311.054 216.9C306.781 215.14 303.098 212.198 300.436 208.419C297.973 204.726 296.699 200.367 296.787 195.929H311.932C311.932 204.021 316.767 208.065 326.436 208.06C329.998 208.06 332.797 207.332 334.832 205.876C335.805 205.191 336.592 204.273 337.12 203.207C337.648 202.14 337.9 200.958 337.855 199.769Z" fill="#232323"/>
</g>
<defs>
<clipPath id="clip0_42_135">
<rect width="353" height="220" fill="white"/>
</clipPath>
</defs>
</svg>
