<svg width="31" height="31" viewBox="0 0 31 31" fill="none" xmlns="http://www.w3.org/2000/svg">
<path d="M20.8933 28.8932L24.08 25.6665C24.3279 25.4189 24.5246 25.1248 24.6588 24.801C24.793 24.4773 24.8621 24.1303 24.8621 23.7798C24.8621 23.4294 24.793 23.0824 24.6588 22.7587C24.5246 22.4349 24.3279 22.1408 24.08 21.8932L22.2667 20.1199C22.019 19.8719 21.7249 19.6752 21.4012 19.541C21.0774 19.4068 20.7304 19.3378 20.38 19.3378C20.0296 19.3378 19.6826 19.4068 19.3588 19.541C19.0351 19.6752 18.741 19.8719 18.4933 20.1199L17.2933 21.3199C14.2042 19.468 11.6173 16.8857 9.76 13.7999L10.96 12.5999C11.2079 12.3522 11.4046 12.0581 11.5388 11.7344C11.673 11.4106 11.7421 11.0636 11.7421 10.7132C11.7421 10.3627 11.673 10.0157 11.5388 9.69201C11.4046 9.36828 11.2079 9.07418 10.96 8.82652L9.16 6.99985C8.91144 6.74382 8.61402 6.54028 8.28537 6.40129C7.95671 6.26229 7.6035 6.19067 7.24666 6.19067C6.88983 6.19067 6.53662 6.26229 6.20796 6.40129C5.87931 6.54028 5.58189 6.74382 5.33333 6.99985L2.2 10.1999C1.9816 10.4168 1.84501 10.7027 1.81342 11.0089C1.78182 11.3151 1.85717 11.6229 2.02666 11.8799C6.55891 18.692 12.4012 24.5343 19.2133 29.0665C19.4703 29.236 19.778 29.3114 20.0843 29.2798C20.3905 29.2482 20.6764 29.1116 20.8933 28.8932Z" stroke="white" stroke-width="2" stroke-linecap="round" stroke-linejoin="round"/>
<path d="M10.7467 3.13322C13.1268 1.85758 15.8524 1.376 18.5256 1.75876C21.1987 2.14152 23.6796 3.3686 25.6062 5.2609C27.5327 7.15321 28.8041 9.6117 29.2347 12.2776C29.6654 14.9435 29.2328 17.6772 28 20.0799" stroke="white" stroke-width="2" stroke-linecap="round" stroke-linejoin="round"/>
<path d="M17.3333 6.57324V14.0399H22.6667" stroke="white" stroke-width="2" stroke-linecap="round" stroke-linejoin="round"/>
</svg>
