<svg width="24" height="30" viewBox="0 0 24 30" fill="none" xmlns="http://www.w3.org/2000/svg">
<g clip-path="url(#clip0_25_45)">
<path d="M0.75 10.25C0.75 8.84986 0.75 8.1498 1.02249 7.61503C1.26216 7.14461 1.64461 6.76216 2.11503 6.52249C2.6498 6.25 3.34987 6.25 4.75 6.25H9.09315C9.70462 6.25 10.0104 6.25 10.2981 6.31908C10.5531 6.38031 10.797 6.48133 11.0208 6.6184C11.273 6.773 11.4892 6.98919 11.9216 7.42158L12.0784 7.57842C12.5108 8.01081 12.727 8.227 12.9792 8.3816C13.203 8.51867 13.4469 8.61969 13.7019 8.68092C13.9896 8.75 14.2954 8.75 14.9069 8.75H19.25C20.6501 8.75 21.3503 8.75 21.885 9.02249C22.3554 9.26216 22.7379 9.64461 22.9775 10.115C23.25 10.6498 23.25 11.3499 23.25 12.75V19.75C23.25 21.1501 23.25 21.8503 22.9775 22.385C22.7379 22.8554 22.3554 23.2379 21.885 23.4775C21.3503 23.75 20.6501 23.75 19.25 23.75H4.75C3.34986 23.75 2.6498 23.75 2.11503 23.4775C1.64461 23.2379 1.26216 22.8554 1.02249 22.385C0.75 21.8503 0.75 21.1501 0.75 19.75V10.25Z" stroke="#7D7D7D" stroke-width="2" stroke-linecap="round" stroke-linejoin="round"/>
</g>
<defs>
<clipPath id="clip0_25_45">
<rect width="24" height="30" fill="white"/>
</clipPath>
</defs>
</svg>
