<svg width="66" height="95" viewBox="0 0 66 95" fill="none" xmlns="http://www.w3.org/2000/svg">
<path d="M30.845 88.667L29.4617 95H10L27.5537 44H47.9216L66 95H46.4429L44.7734 88.667H30.845ZM38.2862 61.032H37.6184C37.523 63.191 37.2368 64.9182 36.7598 66.7893L34.2317 76.5767H41.6252L39.2879 66.7893C38.8109 64.7742 38.5247 62.8551 38.2862 61.032Z" fill="white"/>
<path d="M37.6313 44.0084C37.6313 44.0084 5.79428 32.2948 0.852409 22.9143C-1.8086 17.867 2.61057 0.0108054 2.61057 0.0108054C2.61057 0.0108054 20.9525 -0.370126 25.2767 3.39157C33.3072 10.3436 37.6313 44.0084 37.6313 44.0084Z" fill="white"/>
<path d="M38 44.0151C38 44.0151 44.2249 23.2543 50.0221 19.7783C53.1582 17.8736 64.6576 20.064 64.6576 20.064C64.6576 20.064 65.5604 31.7776 63.3746 34.6822C59.2881 40.0153 38 44.0151 38 44.0151Z" fill="white"/>
</svg>
