<svg width="183" height="56" viewBox="0 0 183 56" fill="none" xmlns="http://www.w3.org/2000/svg">
<g clip-path="url(#clip0_66_264)">
<path d="M14.4644 31.4501H28.2818V32.0134C28.2818 35.088 28.0277 39.2423 25.0701 42.4577C22.644 45.1098 18.7159 46.5415 14.6493 46.5415C9.49662 46.5415 6.35419 44.4527 4.52881 42.4342C2.21821 39.876 1.36328 36.8483 1.36328 33.5625C1.36328 29.0092 3.09624 26.1224 4.75987 24.3856C6.74699 22.2967 10.1436 20.4661 15.0652 20.4661C17.7224 20.4661 20.0099 20.9824 22.2743 22.2263C24.3769 23.3764 25.8557 24.8081 26.9879 26.8265L18.6697 29.9715C18.1614 29.1501 17.1678 28.0704 15.2731 28.0704C13.9792 28.0704 12.9163 28.5164 12.1538 29.2205C11.1603 30.1593 10.3515 31.7553 10.3515 33.938C10.3515 35.6278 10.9061 37.3412 11.969 38.3973C12.6621 39.078 13.6326 39.5239 14.8803 39.5239C16.1974 39.5239 17.9303 39.031 18.5311 37.3881H14.4644V31.4501Z" fill="white"/>
<path d="M38.3098 42.8801L37.6397 45.9782H28.2124L36.7154 21.0293H46.5817L55.3389 45.9782H45.8654L45.0567 42.8801H38.3098ZM41.9143 29.3612H41.5908C41.5446 30.4174 41.406 31.2623 41.1749 32.1777L39.9503 36.9656H43.5317L42.3995 32.1777C42.1685 31.1919 42.0298 30.2531 41.9143 29.3612Z" fill="white"/>
<path d="M57.8113 45.9782V21.0293H68.9022C71.4901 21.0293 74.1704 21.3344 76.4117 23.611C77.6594 24.8784 78.7223 26.7795 78.7223 29.7368C78.7223 31.943 78.0522 33.3277 77.359 34.1961C76.6196 35.1349 75.4181 35.886 73.9624 36.1676V36.4023C74.4476 36.6605 74.9098 37.036 75.2564 37.5523L80.7787 45.9782H70.4965L66.9613 38.6789C66.8457 38.4207 66.7302 38.3034 66.6378 37.9044L66.4992 37.9748V45.9782H57.8113ZM66.5223 32.1307H67.562C68.0704 32.1307 68.8791 32.0603 69.4336 31.5674C69.734 31.3093 70.0575 30.8164 70.0575 30.0419C70.0575 29.4786 69.9189 28.9153 69.5723 28.5398C69.2719 28.2112 68.8098 27.8591 68.0704 27.8591H66.5223V32.1307Z" fill="white"/>
<path d="M84.0137 21.0293H94.7349C96.8375 21.0293 100.119 21.264 102.06 23.1181C102.637 23.6814 103.931 25.1835 103.931 27.9765C103.931 28.9153 103.816 30.2531 102.891 31.4266C102.406 32.0134 101.644 32.6236 100.766 32.9522L100.719 33.1869C101.713 33.4451 102.522 33.9379 103.307 34.689C104.532 35.886 105.11 37.2238 105.11 39.031C105.11 40.979 104.486 42.6923 102.799 44.0771C100.742 45.7669 98.2239 45.9782 96.4909 45.9782H84.0137V21.0293ZM92.2625 30.6052H93.672C94.1803 30.6052 94.9659 30.4643 95.3587 30.0419C95.5898 29.8072 95.844 29.4082 95.844 28.7275C95.844 28.0234 95.5205 27.601 95.2894 27.4132C94.8042 27.0377 93.9955 26.9907 93.672 26.9907H92.2625V30.6052ZM92.2625 39.9463H94.0648C94.5731 39.9463 95.3587 39.8994 95.9364 39.5238C96.3754 39.2187 96.7913 38.6554 96.7913 37.834C96.7913 37.2003 96.5372 36.684 96.1212 36.3319C95.5436 35.839 94.6425 35.8156 94.1803 35.8156H92.2625V39.9463Z" fill="white"/>
<path d="M116.57 42.8801L115.9 45.9782H106.473L114.976 21.0293H124.842L133.599 45.9782H124.126L123.317 42.8801H116.57ZM120.175 29.3612H119.851C119.805 30.4174 119.666 31.2623 119.435 32.1777L118.211 36.9656H121.792L120.66 32.1777C120.429 31.1919 120.29 30.2531 120.175 29.3612Z" fill="white"/>
<path d="M136.072 45.9782V21.0293H144.99V37.9279H152.5V45.9782H136.072Z" fill="white"/>
<path d="M178.217 42.5281C176.114 44.6874 172.695 46.5415 168.004 46.5415C163.314 46.5415 159.894 44.7109 157.791 42.5281C155.873 40.5566 154.372 37.482 154.372 33.4686C154.372 29.5021 155.873 26.4275 157.791 24.456C159.894 22.2968 163.314 20.4426 168.004 20.4426C172.695 20.4426 176.114 22.2733 178.217 24.456C180.135 26.4275 181.637 29.5021 181.637 33.4686C181.637 37.482 180.135 40.5566 178.217 42.5281ZM164.816 29.7838C163.937 30.7226 163.406 32.1777 163.406 33.5156C163.406 34.9472 163.914 36.332 164.816 37.2239C165.555 37.9749 166.664 38.4912 168.027 38.4912C169.391 38.4912 170.5 37.9749 171.239 37.2239C172.048 36.4024 172.648 35.0881 172.648 33.5156C172.648 31.943 172.14 30.6287 171.239 29.7838C170.569 29.1031 169.506 28.5164 168.027 28.5164C166.433 28.4929 165.393 29.1501 164.816 29.7838Z" fill="white"/>
<path d="M41.6372 21.6865C41.6372 21.6865 26.1561 15.9128 23.7531 11.2891C22.4592 8.8013 24.608 -4.51007e-05 24.608 -4.51007e-05C24.608 -4.51007e-05 33.527 -0.187807 35.6296 1.66634C39.5346 5.093 41.6372 21.6865 41.6372 21.6865Z" fill="white"/>
<path d="M41.4753 21.5456C41.4753 21.5456 44.5022 11.3125 47.3212 9.5992C48.8462 8.66039 54.4378 9.74002 54.4378 9.74002C54.4378 9.74002 54.8769 15.5137 53.814 16.9454C51.8269 19.5741 41.4753 21.5456 41.4753 21.5456Z" fill="white"/>
</g>
<defs>
<clipPath id="clip0_66_264">
<rect width="183" height="56" fill="white"/>
</clipPath>
</defs>
</svg>
