<svg width="26" height="22" viewBox="0 0 26 22" fill="none" xmlns="http://www.w3.org/2000/svg">
<path d="M1 5.66675L8.26656 10.5111C9.97727 11.6515 10.8327 12.2218 11.7571 12.4434C12.5741 12.6391 13.4259 12.6391 14.2429 12.4434C15.1673 12.2218 16.0228 11.6515 17.7335 10.5111L25 5.66675M5.26667 20.3334H20.7333C22.2268 20.3334 22.9736 20.3334 23.544 20.0427C24.0457 19.7871 24.4537 19.3791 24.7093 18.8774C25 18.307 25 17.5602 25 16.0667V5.93341C25 4.43995 25 3.6932 24.7093 3.12277C24.4537 2.621 24.0457 2.21305 23.544 1.9574C22.9736 1.66675 22.2268 1.66675 20.7333 1.66675H5.26667C3.7732 1.66675 3.02645 1.66675 2.45603 1.9574C1.95425 2.21305 1.54631 2.621 1.29065 3.12277C1 3.6932 1 4.43993 1 5.93341V16.0667C1 17.5602 1 18.307 1.29065 18.8774C1.54631 19.3791 1.95425 19.7871 2.45603 20.0427C3.02645 20.3334 3.77319 20.3334 5.26667 20.3334Z" stroke="white" stroke-width="2" stroke-linecap="round" stroke-linejoin="round"/>
</svg>
