<svg width="223" height="276" viewBox="0 0 223 276" fill="none" xmlns="http://www.w3.org/2000/svg">
<path fill-rule="evenodd" clip-rule="evenodd" d="M-55.0388 102.267L-37.2537 96.13L-32.8722 108.879L-5.20703 114.043L-0.404411 128.043L101.717 92.8793L80.6065 89.9844L74.4267 72.0747L101.96 75.8483L93.9384 52.7246L112.256 46.4195L120.242 69.4295L138.228 49.4562L144.348 67.2466L125.993 87.6061L128.82 95.7997L147.169 75.4469L153.352 93.4185L135.016 113.756L137.844 121.95L156.173 101.619L162.057 118.723L143.741 139.04L146.568 147.234L164.879 126.924L170.944 144.555L152.647 164.851L155.474 173.045L173.765 152.756L180.013 170.915L161.735 191.189L164.562 199.382L182.834 179.115L188.899 196.747L170.641 216.999L173.468 225.193L191.721 204.947L197.648 222.176L177.65 244.992C173.211 284.447 154.512 315.914 116.034 329.669C77.5558 343.424 30.7593 326.984 9.89197 288.731L-9.03476 309.409L-15.1152 291.624L3.39003 271.098L0.562778 262.904L-17.9233 283.41L-23.9617 265.748L-5.51609 245.287L-8.3432 237.094L-26.7702 257.533L-32.9893 239.343L-14.6039 218.95L-17.4311 210.756L-35.7975 231.128L-41.8357 213.467L-23.51 193.139L-26.3373 184.945L-44.6444 205.252L-50.5024 188.118L-32.2344 167.855L-35.0616 159.661L-53.3104 179.904L-59.4653 161.901L-41.2575 141.705L-44.0848 133.511L-62.2738 153.687L-68.5002 135.474L-50.5557 115.261L-55.0388 102.267ZM1.90386 42.1776L20.112 50.7446L29.3059 32.7225L37.4379 56.2895L61.0199 48.1524L52.4639 66.3291L70.4691 75.5371L46.887 83.6742L55.0188 107.241L36.7002 98.7763L27.6167 116.696L19.485 93.1293L-4.09714 101.266L4.43181 82.9208L-13.5463 73.8818L10.0358 65.7447L1.90386 42.1776ZM19.3012 77.87L25.3025 65.5553L37.6214 71.5485L31.6199 83.8638L19.3012 77.87ZM-26.5291 127.061L-23.4321 136.157L-6.7512 130.401L-26.5291 127.061Z" fill="#CF9329"/>
<path fill-rule="evenodd" clip-rule="evenodd" d="M152.304 221.698L152.511 222.302C167.271 265.271 142.262 301.335 110.753 312.038C79.2518 322.74 36.2723 309.358 21.5432 266.817L152.304 221.698Z" fill="#00923F"/>
<path fill-rule="evenodd" clip-rule="evenodd" d="M132.453 163.913L152.36 221.867L21.6018 266.986C21.5785 266.918 21.5533 266.854 21.53 266.786L1.57141 209.074L132.453 163.913Z" fill="#0093DD"/>
<path fill-rule="evenodd" clip-rule="evenodd" d="M-17.5876 153.677L113.411 108.475L132.453 163.913L1.57097 209.074L-17.5876 153.677Z" fill="#DA251D"/>
<path fill-rule="evenodd" clip-rule="evenodd" d="M44.7343 159.069C46.061 161.181 48.6436 163.375 50.3859 165.196C52.18 164.511 51.2777 164.757 53.0724 164.072C50.8287 165.556 50.3304 166.34 48.3477 166.864C44.3074 167.311 40.9708 165.924 36.515 166.601C37.7612 168.747 44.6888 172.623 47.3107 173.52C50.4883 170.255 53.1057 168.075 53.9636 167.448C55.1736 169.222 55.8846 169.551 56.7566 170.559C58.8315 169.767 61.927 168.286 65.1705 166.895C65.3119 167.305 65.4531 167.714 65.5944 168.124C60.5393 171.51 55.78 175.752 51.0305 180.023C46.6621 179.405 42.4399 178.977 38.0717 178.358C38.1694 177.343 38.4026 175.318 39.0763 174.104C36.8294 172.524 34.8046 171.59 32.5577 170.01C33.097 169.202 33.6368 168.395 34.1762 167.587C32.1459 167.11 30.1156 166.633 28.0854 166.156C28.0796 167.239 28.0741 168.323 28.0683 169.406C26.7262 169.162 25.3844 168.918 24.0425 168.674C24.2085 169.952 24.3742 171.231 24.5404 172.509C23.2917 172.194 22.0427 171.878 20.794 171.563C20.8087 172.971 20.8231 174.381 20.838 175.79C19.3432 175.559 17.8485 175.329 16.3542 175.098C16.7781 176.327 17.202 177.555 17.6259 178.784C17.2407 180.174 16.8554 181.563 16.4702 182.953C18.3488 182.816 20.2274 182.678 22.1061 182.541C22.6292 183.146 23.1525 183.751 23.6756 184.356C21.6205 188.883 21.9089 193.684 25.6232 198.885C26.5071 196.499 27.6438 194.474 29.3364 193.244C29.8017 200.434 32.1149 204.325 34.8094 207.254C34.8382 204.673 35.392 202.219 37.8311 201.269C39.4945 203.1 41.1579 204.931 42.8214 206.763C41.7788 208.591 40.4692 210.291 39.1749 211.997C37.8691 210.631 36.5629 209.266 35.2566 207.9C33.9306 209.33 29.3018 211.428 26.3248 213.191C26.0813 212.343 25.8371 211.494 25.5936 210.646C24.1389 211.982 22.6067 213.559 21.1527 214.895C21.9805 215.444 22.8859 215.752 23.7139 216.301C22.9449 217.205 22.2583 218.347 21.4894 219.251C22.4507 219.901 23.3293 220.312 24.2907 220.962C23.7138 221.996 23.1373 223.029 22.5604 224.063C23.3884 224.612 24.5509 225.045 25.3789 225.594C25.155 226.653 23.7084 227.207 23.4844 228.266C24.8154 228.859 26.2769 229.082 27.4706 229.384C28.4823 230.239 29.4468 231.448 30.6204 232.474C31.397 230.881 32.2485 229.261 33.0253 227.668C36.9183 233.72 39.6842 236.301 42.0464 237.267C42.0009 234.179 42.5681 231.75 43.5551 229.77C46.8262 231.676 50.5294 233.141 55.0036 233.819C52.9732 229.563 53.0852 226.164 56.2041 224.705C57.647 226.254 59.0066 227.88 60.7994 229.308C53.4549 246.756 48.3118 263.864 59.1174 280.179C60.3327 278.895 61.6558 277.923 63.086 277.263C63.5487 277.923 63.9873 278.766 64.4013 279.792C62.6873 279.737 61.0687 279.96 59.5162 280.373C57.9287 281.326 56.3411 282.278 54.7537 283.232C55.3328 283.842 55.9119 284.452 56.4911 285.063C55.6767 286.227 54.8629 287.392 54.0485 288.557C55.2645 288.984 56.4811 289.412 57.6972 289.839C57.027 291.101 56.357 292.364 55.687 293.627C56.8454 293.779 58.0037 293.932 59.1619 294.084C58.845 295.409 58.5284 296.734 58.2113 298.058C59.4789 298.1 60.746 298.141 62.0132 298.183C61.8916 299.219 61.7704 300.255 61.6489 301.292C63.3201 301.01 64.9919 300.727 66.6632 300.445C69.5722 297.663 72.546 295.066 75.1967 291.535C79.3402 290.976 83.648 290.323 88.2633 289.995C87.9355 288.333 85.6071 281.867 85.6517 279.862C87.3604 279.832 88.7662 280.349 89.508 282.067C90.4805 278.793 89.4246 275.307 87.9478 271.778C89.813 271.465 91.5381 271.779 92.9554 273.475C93.4095 269.444 92.8698 265.294 90.8881 260.819C91.5186 259.784 92.1698 258.661 92.6591 257.557C99.0336 262.913 105.782 266.841 113.353 267.627C113.386 265.64 113.933 263.722 115.613 261.952C117.282 262.192 118.425 262.613 119.042 263.217C117.332 264.305 115.9 265.242 114.189 266.332C113.811 267.731 113.289 269.677 112.911 271.077C113.942 271.174 114.882 271.008 115.914 271.105C115.786 272.597 115.613 273.957 115.485 275.448C116.619 275.416 117.754 275.384 118.889 275.353C119.039 276.642 119.19 277.932 119.34 279.221C120.605 278.621 122.092 278.018 123.357 277.417C124.515 278.686 125.453 279.957 126.611 281.226C127.521 280.258 128.431 279.29 129.34 278.322C130.171 279.212 131.222 280.101 132.054 280.992C133.439 279.696 134.605 278.402 135.991 277.106C136.601 272.224 137.048 267.183 137.362 262.011C139.551 259.724 141.705 257.333 143.834 254.871C139.734 252.001 135.634 249.13 131.534 246.26C133.307 244.668 133.718 244.259 137.303 243.283C135.842 239.922 128.659 235.287 124.603 234.832C126.222 232.712 127.611 232.369 129.853 231.118C125.283 227.015 118.114 223.807 110.735 221.842C114.387 217.899 114.943 215.118 115.654 212.191C112.42 213.637 109.71 214.016 107.191 213.602C102.993 212.913 101.907 209.688 94.6333 206.196C95.3755 203.617 95.7385 201.169 95.9947 198.759C98.3739 198.751 100.589 199.539 102.338 201.378C103.159 197.29 101.94 190.729 99.8163 185.075C101.711 184.683 103.905 184.972 106.05 186.064C105.78 180.367 103.24 174.669 100.068 169.581C101.603 168.528 103.66 167.851 105.599 167.967C104.769 165.611 102.76 161.97 97.1807 157.231C98.7296 155.649 100.728 154.894 103.714 155.958C102.465 152.529 99.8605 150.483 95.9005 149.822C98.0284 148.02 99.0756 145.835 99.7102 143.502C97.1664 144.478 94.32 144.577 90.8082 142.747C91.6724 141.267 92.9922 141.108 94.3423 141.037C91.4763 136.382 87.8394 133.811 83.1499 134.496C82.243 132.912 81.0142 131.439 79.6397 130.016C75.4244 131.176 72.5186 134.043 70.2079 137.686C68.7131 137.908 67.0614 137.647 65.7239 138.35C62.6047 139.989 59.9765 142.217 57.1576 144.545C56.3169 147.123 55.3144 149.628 54.8821 151.611C51.5636 153.666 45.9327 157.697 44.7343 159.069ZM56.3487 162.515C58.1441 162.17 61.3734 162.612 62.6006 161.497C62.6596 160.681 62.6256 159.862 62.3426 159.269C61.1457 159.027 58.1835 159.018 57.5622 159.426C56.6906 159.998 56.7658 161.56 56.3487 162.515ZM56.3384 165.465C56.8284 165.139 57.4644 164.59 58.0249 164.412C58.7254 164.188 59.7647 164.231 60.6531 164.055C60.4131 164.347 60.1876 164.85 59.8284 164.968C58.7479 165.32 57.4648 165.312 56.3384 165.465Z" fill="#CF9329"/>
<path fill-rule="evenodd" clip-rule="evenodd" d="M61.4794 230.076C63.0624 231.248 64.6456 232.42 66.2292 233.592C65.5486 239.778 65.8423 245.543 69.6118 249.802C72.9583 243.984 74.1631 242.635 76.105 242.996C75.3445 249.739 78.7838 253.51 83.5161 256.785C84.1713 253.417 84.8416 251.517 85.8723 250.376C87.8475 252.542 89.8229 254.708 91.7985 256.873C91.0626 258.158 90.3271 259.442 89.5917 260.727C91.5614 264.551 92.2737 268.11 92.1252 271.487C90.1483 270.598 88.2381 270.472 86.3951 271.108C88.1627 274.23 88.7925 277.056 89.26 279.839C87.2774 278.505 85.8264 278.714 84.4512 279.142C84.6316 282.369 86.0469 285.758 86.8443 289.067C82.8715 289.652 78.762 289.843 74.7887 290.429C71.704 293.874 68.9886 296.823 66.2431 298.974C64.2011 296.045 62.1593 293.118 60.1174 290.189C60.0127 287.182 59.9085 284.174 59.8039 281.167C61.3569 280.828 63.3821 280.718 65.8794 280.838C65.3346 279.259 64.0406 277.643 63.4957 276.064C61.9108 276.461 60.648 277.781 59.6493 279.011C50.2362 265.931 53.555 248.746 61.4794 230.076ZM20.7575 179.552C24.2697 176.544 27.5557 173.613 31.068 170.605C33.2317 171.178 35.359 173.11 37.5047 174.363C37.1349 176.182 37.0317 177.728 37.0505 179.151C41.2714 179.744 45.4924 180.337 49.7133 180.929C43.1767 186.303 41.8221 189.479 41.9189 192.04C46.6642 190.824 49.4252 190.684 50.2017 191.624C46.8756 193.281 43.5733 195.03 40.9893 199.602C43.8076 199.416 45.9279 199.863 47.3509 200.944C46.1504 202.593 44.9498 204.243 43.7493 205.892C41.8333 204.083 39.9167 202.274 38.0007 200.465C35.2324 201.3 34.3867 203.122 34.1217 205.34C32.4119 202.773 30.92 199.226 29.9047 192.143C28.3629 192.632 26.1917 194.253 25.522 197.024C23.2874 193.486 22.0779 189.496 24.5302 183.892C23.1971 182.472 22.0901 180.973 20.7575 179.552ZM45.9427 159.001C48.0598 157.111 51.117 155.122 55.6097 152.357C56.3177 150.093 57.1682 147.427 58.0723 145.095C60.525 143.166 63.2547 140.832 66.4134 139.313C67.7096 138.69 69.3032 138.913 70.7372 138.797C73.9649 134.16 77.1167 131.668 79.4937 131.391C80.8098 132.559 81.9872 133.909 82.8608 135.658C85.7818 134.851 89.9633 135.794 92.6509 140.233C91.5285 140.414 89.898 141.397 89.7625 142.845C91.5546 144.507 94.382 145.4 98.2138 145.005C97.4849 146.67 95.9039 148.786 94.4575 150.229C97.779 150.94 100.464 151.898 101.935 154.326C98.6928 154.686 96.5649 155.556 96.104 157.399C99.2909 160.297 102.703 163.445 104.255 166.907C101.785 167.058 100.106 167.932 99.2219 169.528C101.667 174.454 104.415 179.274 104.917 184.87C103.053 183.619 100.877 183.556 98.5608 184.031C99.9988 188.925 101.26 193.879 101.288 199.259C100.021 197.872 97.9986 197.138 95.2193 197.058C95.1723 200.667 94.653 204.046 93.6614 207.195C97.7459 208.134 100.131 211.445 103.328 213.579C105.844 215.258 110.325 215.961 114.362 213.716C113.391 216.546 111.175 219.609 109.031 222.452C115.474 224.433 122.301 226.752 127.709 230.86C125.622 232.1 123.622 233.275 122.786 235.565C127.174 236.61 131.524 238.321 135.713 242.775C133.715 243.308 131.928 244.455 130.354 246.216C134.455 249.044 138.656 252.058 142.757 254.886C140.72 257.357 138.585 259.644 136.547 262.115C135.96 266.738 135.903 271.473 135.316 276.096C131.486 275.767 127.128 275.326 123.299 274.997C120.68 272.365 117.94 269.381 115.321 266.748C117.071 265.496 118.942 264.594 120.693 263.342C119.762 262.101 117.76 261.41 115.273 260.968C113.767 262.657 112.802 264.372 112.629 266.124C101.947 265.347 93.6706 257.527 85.7379 248.702C83.6036 251.384 82.8166 253.6 82.9522 255.499C76.4632 250.089 76.7764 245.88 77.3089 241.708C75.1252 241.165 72.8021 241.534 69.4958 248.294C66.2742 243.018 66.7701 238.232 67.3856 233.462C63.2246 230.241 59.6324 226.824 56.1213 223.379C53.3289 224.926 52.0825 227.783 53.0956 232.557C49.5314 231.698 46.3347 230.296 43.2708 228.698C41.9727 230.03 41.053 232.116 40.9644 235.859C37.541 233.327 35.2221 230.053 33.4621 226.424C31.7349 227.089 30.0168 227.186 28.3371 226.955C27.7647 222.731 27.1923 218.508 26.6194 214.285C29.2952 212.125 33.319 210.971 35.1903 209.383C36.4209 210.726 38.0396 212.171 39.2697 213.515C42.5228 209.359 45.421 205.033 48.799 200.62C47.5173 199.588 45.2649 198.732 42.7914 198.593C44.3475 196.162 47.8763 193.781 51.9341 191.758C50.549 189.747 47.5759 189.682 43.516 190.949C43.6232 189.379 44.4656 187.806 45.5876 186.697C52.0621 180.303 59.0328 174.042 66.0825 168.663C66.2426 167.664 65.9517 166.821 65.2102 166.134C62.472 167.434 59.7922 168.515 57.1518 169.446C56.2169 168.707 55.381 167.724 54.8483 166.847C56.7309 166.492 58.9132 166.578 60.7121 165.918C61.7052 165.554 62.3911 164.631 63.2308 163.988C63.8331 161.973 63.4199 160.186 63.067 158.386C61.2335 158.371 59.0979 157.916 57.4311 158.68C56.133 159.275 56.0055 161.142 55.5806 162.232C54.0357 162.883 52.2136 163.461 50.6691 164.112C48.9461 162.706 47.3081 160.934 45.9427 159.001ZM58.8351 152.019C58.583 152.119 58.3978 152.52 58.5889 152.712C59.0995 153.229 59.6933 153.271 60.353 153.182C60.838 153.117 61.3597 152.369 61.8452 152.304C62.715 152.187 63.8574 153.032 64.3868 152.805C64.8849 152.591 64.6685 151.503 64.1708 151.075C63.94 150.877 63.6721 151.294 63.3675 151.297C62.9877 151.301 62.6 150.978 62.1575 151.097C61.5388 151.263 61.1525 151.775 60.4348 152.021C59.9691 152.18 59.2927 151.837 58.8351 152.019ZM61.6457 152.611C62.1479 152.438 62.7465 152.85 62.9817 153.532C63.2169 154.213 63 154.907 62.4977 155.08C61.9945 155.254 61.3965 154.842 61.1612 154.16C60.926 153.478 61.1425 152.785 61.6457 152.611Z" fill="#1F1A17"/>
<path fill-rule="evenodd" clip-rule="evenodd" d="M38.1001 167.322C41.8209 167.352 46.8574 168.078 49.1917 167.379C50.9741 166.845 53.7014 163.914 56.1862 163.169C58.0977 162.595 59.564 163.339 62.3955 162.293C62.2879 162.664 62.1353 162.905 62.0278 163.276C60.4023 163.958 58.2973 163.76 57.4684 164.229C54.1834 166.087 50.5371 169.799 47.1158 172.627C43.8481 171.197 40.9759 169.37 38.1001 167.322Z" fill="#DA251D"/>
<path fill-rule="evenodd" clip-rule="evenodd" d="M114.586 266.608L123.077 275.463L135.724 276.743L132.088 280.443L129.327 277.745L126.624 280.581L123.422 276.867L119.846 278.536L119.2 274.894L115.948 274.99L116.293 270.653L113.493 270.691L114.586 266.608ZM55.6164 283.291L59.3589 280.98L59.7307 290.272L66.4641 299.921L62.201 300.672L62.3785 297.85L58.9217 297.461L59.7358 293.645L56.7023 293.083L58.3988 289.581L55.0543 288.118L57.005 284.973L55.6164 283.291ZM28.8316 167.14L33.1808 168.011L20.0845 179.553L21.9859 181.827L17.5234 182.111L18.4226 178.917L17.2381 176.024L21.5431 176.631L21.3879 172.406L25.1952 173.325L24.8498 169.491L28.6952 170.117L28.8316 167.14ZM25.3373 211.748C26.613 217.197 27.1338 222.279 27.8052 227.435C29.0609 227.703 30.8107 227.795 32.6287 227.419C31.9651 228.51 31.1129 230.08 30.4495 231.172C29.5492 230.384 28.6998 229.402 27.8 228.614C26.2572 228.557 25.4628 228.243 24.519 227.98C24.9036 227.161 26.0131 226.621 26.181 225.288C25.3063 224.687 24.3466 224.351 23.4716 223.751C23.9841 222.789 24.46 221.723 24.9725 220.761C24.1506 220.142 23.0566 219.676 22.2343 219.058C22.922 218.035 23.9092 216.939 24.5968 215.917C23.853 215.526 22.8803 215.068 22.1365 214.677C23.0535 213.694 24.4201 212.732 25.3373 211.748Z" fill="#DA251D"/>
</svg>
