<svg width="32" height="32" viewBox="0 0 32 32" fill="none" xmlns="http://www.w3.org/2000/svg">
<g clip-path="url(#clip0_58_68)">
<path d="M16 0C8.1 0 0 1.7 0 14C0 20.6 2.3 24.7 7 26.6V30.3C7 31 7.4 31.6 8 31.9C8.2 32 8.5 32 8.7 32C9.1 32 9.6 31.8 9.9 31.5L13.5 27.9C14.3 27.9 15.1 28 16 28C23.9 28 32 26.3 32 14C32 1.7 23.9 0 16 0ZM15.5 10.2C17.3 10.2 18.8 11.7 18.8 13.5C18.8 14.1 18.4 14.5 17.8 14.5C17.2 14.5 16.8 14.1 16.8 13.5C16.8 12.8 16.2 12.2 15.5 12.2C14.9 12.2 14.5 11.8 14.5 11.2C14.5 10.6 14.9 10.2 15.5 10.2ZM14.5 8.1C14.5 7.5 14.9 7.1 15.5 7.1C19 7.1 21.9 10 21.9 13.5C21.9 14.1 21.5 14.5 20.9 14.5C20.3 14.5 19.9 14.1 19.9 13.5C19.9 11.1 17.9 9.1 15.5 9.1C14.9 9.1 14.5 8.6 14.5 8.1ZM22.7 20.5C22.3 21.7 20.8 22.7 19.5 22.9C19.2 23 18.9 23 18.5 23C17.7 23 16.5 22.8 14.4 21.9C12 20.9 9.6 18.8 7.7 16.1V16C7.1 15.1 6 13.4 6 11.6C6 9.4 7.1 8.3 7.5 7.8C8.1 7.3 8.8 7 9.6 7C9.8 7 9.9 7 10.1 7C10.8 7 11.3 7.2 11.8 8.2L12.2 9C12.5 9.8 12.9 10.7 13 10.8C13.3 11.4 13.3 11.9 13 12.4C12.9 12.7 12.7 12.9 12.5 13.1C12.4 13.3 12.3 13.4 12.2 13.4C12.1 13.5 12.1 13.5 12 13.6C12.3 14.1 12.9 15 13.7 15.7C14.9 16.8 15.8 17.1 16.3 17.3C16.5 17.1 16.7 16.7 17 16.4L17.1 16.2C17.6 15.5 18.4 15.3 19.2 15.6C19.6 15.8 21.8 16.8 21.8 16.8L22 16.9C22.3 17.1 22.7 17.2 22.9 17.6C23.2 18.5 22.9 19.8 22.7 20.5ZM24 14.5C23.4 14.5 23 14.1 23 13.5C23 9.4 19.6 6 15.5 6C14.9 6 14.5 5.6 14.5 5C14.5 4.4 14.9 4 15.5 4C20.7 4 25 8.3 25 13.5C25 14.1 24.6 14.5 24 14.5Z" fill="white"/>
</g>
<defs>
<clipPath id="clip0_58_68">
<rect width="32" height="32" fill="white"/>
</clipPath>
</defs>
</svg>
