<svg width="32" height="19" viewBox="0 0 32 19" fill="none" xmlns="http://www.w3.org/2000/svg">
<path d="M19.377 9.1393C18.7918 8.91471 18.7918 8.05694 18.7556 7.45961C18.6093 5.33192 19.3407 2.08364 18.463 0.702609C17.8416 -0.119317 14.8422 -0.0440539 13.0142 0.0682442C12.5016 0.143508 11.8802 0.254612 11.4414 0.479208C11.0025 0.703805 10.5637 1.07654 10.5637 1.41224C10.5637 1.89727 11.6614 1.8232 12.0628 2.45757C12.5016 3.13016 12.5016 4.58526 12.5016 5.77992C12.5016 7.16095 12.2816 8.99117 11.7339 9.06523C10.8925 9.10227 10.4174 8.24331 9.97852 7.60894C9.10082 6.37725 8.22312 4.84569 7.56425 3.35237C7.23541 2.56867 7.05168 1.70971 6.57655 1.37401C5.84513 0.850748 4.52857 0.813713 3.24829 0.850748C2.07802 0.887782 0.395173 0.73845 0.0663272 1.44808C-0.189962 2.23178 0.358895 2.97844 0.651463 3.614C2.15058 6.93635 3.7597 9.84893 5.73512 12.611C7.56425 15.1867 9.28221 17.2403 12.6467 18.3227C13.5982 18.6213 17.7667 19.4803 18.6081 18.3227C18.9007 17.8747 18.8281 16.8664 18.9744 16.1197C19.1207 15.373 19.3032 14.6264 19.9984 14.5893C20.5835 14.5523 20.9124 15.0744 21.2787 15.4483C21.6812 15.8593 22.0101 16.195 22.3026 16.5689C22.9978 17.2785 23.7292 18.2486 24.6069 18.6225C25.8135 19.1458 27.6789 18.9965 29.4343 18.9212C30.8608 18.8842 31.8848 18.5855 31.9948 17.7265C32.0686 17.0539 31.336 16.0839 30.8971 15.5236C29.7994 14.1425 29.288 13.7316 28.044 12.4617C27.4951 11.9014 26.8 11.304 26.8 10.6326C26.7637 10.2217 27.0926 9.84893 27.3851 9.43797C28.6654 7.49664 29.9457 6.11562 31.116 4.09903C31.4448 3.5017 32.2137 2.12067 31.9211 1.44808C31.5923 0.701415 29.7631 0.924816 28.6291 0.924816C27.1663 0.924816 25.2646 0.812518 24.8983 1.11118C24.2032 1.59622 23.9106 2.38111 23.5818 3.12777C22.8503 4.84569 21.8626 6.59946 20.8386 7.90641C20.4723 8.35441 19.7784 9.28744 19.3758 9.13811L19.377 9.1393Z" fill="white"/>
</svg>
