<svg width="32" height="32" viewBox="0 0 32 32" fill="none" xmlns="http://www.w3.org/2000/svg">
<g clip-path="url(#clip0_58_64)">
<path d="M29.3318 7.11491C24.6265 -0.100092 15.0197 -2.24509 7.56958 2.23991C0.315496 6.72491 -2.03718 16.4749 2.66817 23.6899L3.06029 24.2749L1.49183 30.1249L7.37352 28.5649L7.96169 28.9549C10.5104 30.3199 13.2552 31.0999 16 31.0999C18.9408 31.0999 21.8817 30.3199 24.4304 28.7599C31.6845 24.0799 33.8411 14.5249 29.3318 7.11491ZM25.2147 22.1299C24.4304 23.2999 23.4501 24.0799 22.0778 24.2749C21.2935 24.2749 20.3132 24.6649 16.3921 23.1049C13.0592 21.5449 10.3144 19.0099 8.35381 16.0849C7.17747 14.7199 6.5893 12.9649 6.39324 11.2099C6.39324 9.64991 6.98141 8.28491 7.96169 7.30991C8.35381 6.91991 8.74592 6.72491 9.13803 6.72491H10.1183C10.5104 6.72491 10.9025 6.72491 11.0986 7.50491C11.4907 8.47991 12.471 10.8199 12.471 11.0149C12.667 11.2099 12.667 11.5999 12.471 11.7949C12.667 12.1849 12.471 12.5749 12.2749 12.7699C12.0789 12.9649 11.8828 13.3549 11.6868 13.5499C11.2947 13.7449 11.0986 14.1349 11.2947 14.5249C12.0789 15.6949 13.0592 16.8649 14.0394 17.8399C15.2158 18.8149 16.3921 19.5949 17.7645 20.1799C18.1566 20.3749 18.5487 20.3749 18.7448 19.9849C18.9408 19.5949 19.9211 18.6199 20.3132 18.2299C20.7054 17.8399 20.9014 17.8399 21.2935 18.0349L24.4304 19.5949C24.8225 19.7899 25.2147 19.9849 25.4107 20.1799C25.6068 20.7649 25.6068 21.5449 25.2147 22.1299Z" fill="white"/>
</g>
<defs>
<clipPath id="clip0_58_64">
<rect width="32" height="32" fill="white"/>
</clipPath>
</defs>
</svg>
