<svg width="32" height="32" viewBox="0 0 32 32" fill="none" xmlns="http://www.w3.org/2000/svg">
<path d="M2.14713 0.03125H5.01957L6.86982 5.72475H7.04876L8.81332 0.03125H11.7104L8.3912 8.36487V14.2767H5.54007V8.63L2.14713 0.03125ZM12.0121 6.16606C12.0121 5.33019 12.3555 4.66587 13.0429 4.16994C13.7294 3.67406 14.6522 3.42613 15.8116 3.42613C16.8674 3.42613 17.7321 3.68812 18.4058 4.2105C19.0811 4.73287 19.4178 5.405 19.4178 6.22844V11.8034C19.4178 12.7266 19.0865 13.4517 18.4261 13.9773C17.7649 14.5028 16.8541 14.7664 15.6958 14.7664C14.5796 14.7664 13.6869 14.495 13.0167 13.9524C12.3474 13.4097 12.0121 12.6799 12.0121 11.7613V6.16606ZM14.6378 11.964C14.6378 12.2619 14.7278 12.4896 14.9099 12.6533C15.0916 12.8155 15.3509 12.895 15.6881 12.895C16.0339 12.895 16.3088 12.8139 16.5119 12.6486C16.7154 12.4818 16.8176 12.2541 16.8176 11.964V6.08494C16.8176 5.84944 16.7131 5.65919 16.5057 5.51419C16.2983 5.36912 16.0258 5.29581 15.6881 5.29581C15.3774 5.29581 15.1239 5.36912 14.9298 5.51419C14.7349 5.65919 14.6378 5.84944 14.6378 6.08494V11.964ZM28.7495 3.59925V14.3937H26.1943V13.2022C25.7226 13.6421 25.233 13.9757 24.723 14.2066C24.2139 14.4342 23.7188 14.5496 23.2399 14.5496C22.649 14.5496 22.2029 14.389 21.9035 14.0677C21.6041 13.7464 21.4544 13.2646 21.4544 12.6221V3.59925H24.0103V11.8736C24.0103 12.1309 24.0641 12.3149 24.1709 12.4303C24.2786 12.5442 24.4517 12.6019 24.6911 12.6019C24.8797 12.6019 25.1176 12.5254 25.4036 12.3742C25.6913 12.2229 25.9548 12.0296 26.1942 11.7941V3.59925H28.7495ZM26.355 22.7039C26.2295 22.5651 26.0298 22.4934 25.7554 22.4934C25.4685 22.4934 25.2627 22.5651 25.1379 22.7039C25.0132 22.8442 24.9508 23.0766 24.9508 23.4009V24.0731H26.5429V23.4009C26.5429 23.0766 26.4805 22.8442 26.355 22.7039ZM18.8034 27.7642C18.9406 27.8204 19.0857 27.8469 19.2385 27.8469C19.4599 27.8469 19.6206 27.7938 19.7251 27.6847C19.8294 27.5771 19.8809 27.3977 19.8809 27.1514V23.2652C19.8809 23.0033 19.817 22.8053 19.6892 22.6696C19.5605 22.5339 19.3727 22.4668 19.1294 22.4668C19.0007 22.4668 18.8736 22.4917 18.748 22.5417C18.6225 22.5931 18.4986 22.6727 18.3761 22.7787V27.4913C18.5228 27.6192 18.6654 27.7096 18.8034 27.7642ZM30.656 19.5367C30.656 17.6654 28.7339 16.148 26.3651 16.148C22.9859 16.0341 19.5279 15.9843 16 15.9904C12.4733 15.9842 9.01526 16.0341 5.63482 16.148C3.26726 16.148 1.34526 17.6653 1.34526 19.5367C1.20295 21.0166 1.14132 22.498 1.14682 23.9795C1.14138 25.4609 1.20295 26.9424 1.34526 28.4239C1.34526 30.2936 3.26726 31.8109 5.63482 31.8109C9.01526 31.9232 12.4733 31.9731 16 31.9684C19.5279 31.9731 22.9859 31.9232 26.3651 31.8109C28.7339 31.8109 30.656 30.2936 30.656 28.4239C30.7979 26.9424 30.8594 25.4609 30.8531 23.9795C30.8594 22.498 30.7979 21.0166 30.656 19.5367ZM7.5782 28.9666V29.0789H5.54863V28.9666V20.1028H3.44888V19.9921V18.5793V18.4686H9.67838V18.5793V19.9921V20.1028H7.5782V28.9666ZM14.798 21.3331V28.9666V29.0789H12.9961V28.9666V28.2227C12.6631 28.5392 12.3181 28.7779 11.9591 28.9432C11.5993 29.1069 11.2507 29.1896 10.9123 29.1896C10.4959 29.1896 10.1821 29.0741 9.97076 28.8449C9.75907 28.6141 9.65338 28.2679 9.65338 27.8063V27.694V21.3331V21.2224H11.4561V21.3331V27.1591C11.4561 27.3416 11.4936 27.4757 11.5688 27.5568C11.6448 27.6394 11.7672 27.68 11.936 27.68C12.0689 27.68 12.2362 27.6254 12.4389 27.5178C12.6409 27.4086 12.8264 27.2699 12.9961 27.1014V21.3331V21.2224H14.798V21.3331ZM21.7359 23.1779V27.3619V27.4742C21.7359 28.0247 21.5948 28.4457 21.3126 28.7389C21.0303 29.0289 20.6217 29.1755 20.0884 29.1755C19.7359 29.1755 19.4226 29.1194 19.1465 29.0071C18.8698 28.8932 18.6133 28.7186 18.3762 28.4831V28.9665V29.0788H16.5571V28.9665V18.5792V18.4685H18.3762V18.5792V21.8477C18.6195 21.6107 18.8768 21.4314 19.1497 21.3097C19.4234 21.1866 19.7003 21.1242 19.9793 21.1242C20.5484 21.1242 20.9851 21.2895 21.2853 21.6201C21.5854 21.9507 21.7359 22.4326 21.7359 23.0658V23.1779ZM28.3978 23.415V25.2754V25.3878H24.9508V26.7366C24.9508 27.1436 25.01 27.4259 25.1286 27.5834C25.2478 27.7409 25.4506 27.8204 25.7374 27.8204C26.0361 27.8204 26.2459 27.7534 26.3651 27.6192C26.4836 27.4867 26.5429 27.1919 26.5429 26.7366V26.3109V26.1986H28.3979V26.3109V26.7803V26.8925C28.3979 27.6863 28.1726 28.2836 27.7204 28.6859C27.2688 29.0882 26.5944 29.2878 25.6969 29.2878C24.8899 29.2878 24.2553 29.0742 23.7913 28.6485C23.3282 28.2227 23.0959 27.6364 23.0959 26.8925V26.7803V23.415V23.3043C23.0959 22.6322 23.3508 22.0848 23.8592 21.6606C24.3683 21.238 25.0273 21.0259 25.8334 21.0259C26.6584 21.0259 27.2914 21.2224 27.7344 21.6138C28.1758 22.0053 28.3979 22.5698 28.3979 23.3043V23.415H28.3978Z" fill="white"/>
</svg>
