<svg width="20px" height="20px" version="1.1" id="Layer_1" xmlns="http://www.w3.org/2000/svg" xmlns:xlink="http://www.w3.org/1999/xlink" x="0px" y="0px" viewBox="0 0 327.733 327.733" style="enable-background:new 0 0 327.733 327.733;" xml:space="preserve">
                <g>
                    <circle style="fill:#61B4E4;" cx="272.458" cy="60.11" r="47.774" />
                    <circle style="fill:#61B4E4;" cx="272.458" cy="267.622" r="47.774" />
                    <circle style="fill:#005CB9;" cx="92.745" cy="163.866" r="85.245" />
                    <path style="fill:#071C2C;" d="M272.458,212.35c-17.728,0-33.521,8.398-43.643,21.415l-52.272-30.179 c5.733-12.047,8.948-25.515,8.948-39.72c0-14.206-3.214-27.674-8.948-39.721l52.272-30.178 c10.121,13.017,25.915,21.415,43.643,21.415c30.479,0,55.275-24.795,55.275-55.272S302.936,4.837,272.458,4.837 s-55.274,24.796-55.274,55.273c0,7.387,1.467,14.434,4.108,20.88l-52.272,30.179c-16.757-24.179-44.695-40.048-76.275-40.048 C41.605,71.121,0,112.727,0,163.866s41.605,92.745,92.744,92.745c31.581,0,59.52-15.87,76.276-40.049l52.272,30.179 c-2.641,6.447-4.108,13.494-4.108,20.881c0,30.478,24.796,55.273,55.274,55.273c30.479,0,55.275-24.796,55.275-55.273 S302.936,212.35,272.458,212.35z M272.458,19.837c22.208,0,40.275,18.066,40.275,40.273c0,22.206-18.067,40.272-40.275,40.272 c-22.207,0-40.274-18.066-40.274-40.272C232.184,37.903,250.25,19.837,272.458,19.837z M92.744,241.611 C49.876,241.611,15,206.735,15,163.866s34.876-77.745,77.744-77.745c42.869,0,77.746,34.876,77.746,77.745 S135.613,241.611,92.744,241.611z M272.458,307.896c-22.207,0-40.274-18.066-40.274-40.273c0-22.206,18.067-40.272,40.274-40.272 c22.208,0,40.275,18.066,40.275,40.272C312.732,289.829,294.665,307.896,272.458,307.896z" />
                </g>
            </svg>