<svg width="30px" height="30px" viewBox="0 0 48 48" xmlns="http://www.w3.org/2000/svg"><g id="Arrow,-back,-direction,-move,-pointer-9" fill="none" fill-rule="evenodd"><path id="Shape" d="m24 3c11.5979797 0 21 9.4020203 21 21s-9.4020203 21-21 21-21-9.4020203-21-21 9.4020203-21 21-21zm3 10h-13v2h13l.2249383.0041385c3.2094868.1182897 5.7750617 2.7574646 5.7750617 5.9958615s-2.5655749 5.8775718-5.7750617 5.9958615l-.2249383.0041385h-10.3395923l5.9980969-5.2474233-1.3170092-1.5051534-8.8600877 7.7525767 8.8600877 7.7525767 1.3170092-1.5051534-5.9980969-5.2474233h10.3395923l.2491793-.0038068c4.3029829-.1316503 7.7508207-3.6612789 7.7508207-7.9961932s-3.4478378-7.8645429-7.7508207-7.9961932z" fill="#2eaff0" fill-rule="nonzero"></path></g></svg>