<svg width="30px" height="30px" xmlns="http://www.w3.org/2000/svg" version="1.1" viewBox="0 0 372 372.30288"><g id="surface1"><path d="M 6.347656 55.65625 L 365.257812 55.65625 L 365.257812 259.890625 L 6.347656 259.890625 Z M 6.347656 55.65625 " style=" stroke:none;fill-rule:nonzero;fill:rgb(0%,84.313725%,87.45098%);fill-opacity:1;"></path><path d="M 6.347656 6.195312 L 6.347656 55.65625 L 130.144531 55.65625 L 117.757812 6.195312 Z M 6.347656 6.195312 " style=" stroke:none;fill-rule:nonzero;fill:rgb(100%,92.156863%,60%);fill-opacity:1;"></path><path d="M 278.625 191.84375 C 230.765625 191.84375 191.996094 230.613281 191.996094 278.476562 C 191.996094 326.335938 230.765625 365.105469 278.625 365.105469 C 326.488281 365.105469 365.257812 326.335938 365.257812 278.476562 C 365.257812 230.613281 326.488281 191.84375 278.625 191.84375 Z M 278.625 278.476562 Z M 278.625 278.476562 " style=" stroke:none;fill-rule:nonzero;fill:rgb(100%,31.372549%,13.72549%);fill-opacity:1;"></path><path d="M 284.820312 216.625 L 272.429688 216.625 L 272.429688 272.28125 L 216.777344 272.28125 L 216.777344 284.671875 L 272.429688 284.671875 L 272.429688 334.230469 L 284.820312 334.230469 L 284.820312 284.671875 L 340.578125 284.671875 L 340.578125 272.28125 L 284.820312 272.28125 Z M 284.820312 216.625 " style=" stroke:none;fill-rule:nonzero;fill:rgb(40%,90.588235%,92.54902%);fill-opacity:1;"></path><path d="M 371.453125 55.65625 C 371.453125 52.257812 368.652344 49.460938 365.257812 49.460938 L 134.941406 49.460938 L 123.75 4.695312 C 123.050781 1.898438 120.554688 0 117.757812 0 L 6.347656 0 C 2.949219 0 0.152344 2.796875 0.152344 6.195312 L 0.152344 266.085938 C 0.152344 269.484375 2.949219 272.28125 6.347656 272.28125 L 186.101562 272.28125 C 186 274.378906 185.800781 276.378906 185.800781 278.476562 C 185.402344 329.734375 226.667969 371.601562 277.925781 372 C 329.1875 372.398438 371.050781 331.132812 371.453125 279.875 C 371.453125 275.277344 371.152344 270.683594 370.550781 266.183594 L 371.453125 266.183594 Z M 12.542969 12.390625 L 112.960938 12.390625 L 122.253906 49.558594 L 12.542969 49.558594 Z M 278.625 358.910156 C 234.164062 358.910156 198.191406 322.941406 198.191406 278.476562 C 198.191406 234.011719 234.164062 198.039062 278.625 198.039062 C 323.089844 198.039062 359.0625 234.011719 359.0625 278.476562 C 359.0625 322.941406 323.089844 358.910156 278.625 358.910156 Z M 278.625 185.648438 C 234.5625 185.75 196.492188 216.726562 187.699219 259.890625 L 12.542969 259.890625 L 12.542969 61.851562 L 359.0625 61.851562 L 359.0625 232.3125 C 342.574219 203.535156 311.898438 185.648438 278.625 185.648438 Z M 278.625 185.648438 " style=" stroke:none;fill-rule:nonzero;fill:rgb(13.72549%,12.156863%,12.54902%);fill-opacity:1;"></path><path d="M 284.820312 216.625 L 272.429688 216.625 L 272.429688 272.28125 L 216.777344 272.28125 L 216.777344 284.671875 L 272.429688 284.671875 L 272.429688 334.230469 L 284.820312 334.230469 L 284.820312 284.671875 L 340.578125 284.671875 L 340.578125 272.28125 L 284.820312 272.28125 Z M 284.820312 216.625 " style=" stroke:none;fill-rule:nonzero;fill:rgb(13.72549%,12.156863%,12.54902%);fill-opacity:1;"></path></g></svg>