<svg width="30px" height="30px" viewBox="0 0 512 512" xmlns="http://www.w3.org/2000/svg"><g><g><path d="m40 120v-64h88l16 32h328v24" fill="#006df0"></path><path d="m16 120h480v336h-480z" fill="#78b9eb"></path><circle cx="256" cy="288" fill="#d80027" r="96"></circle><path d="m192 272h128v32h-128z" fill="#e0e0e2"></path></g><g><path d="m496 112h-16v-24a8 8 0 0 0 -8-8h-323.06l-13.78-27.58a8.011 8.011 0 0 0 -7.16-4.42h-88a8 8 0 0 0 -8 8v56h-16a8 8 0 0 0 -8 8v336a8 8 0 0 0 8 8h480a8 8 0 0 0 8-8v-336a8 8 0 0 0 -8-8zm-448-48h75.06l13.78 27.58a8.011 8.011 0 0 0 7.16 4.42h320v16h-416zm440 384h-464v-320h464z"></path><path d="m256 392a104 104 0 1 0 -104-104 104.118 104.118 0 0 0 104 104zm0-192a88 88 0 1 1 -88 88 88.1 88.1 0 0 1 88-88z"></path><path d="m328 304v-32a8 8 0 0 0 -8-8h-128a8 8 0 0 0 -8 8v32a8 8 0 0 0 8 8h128a8 8 0 0 0 8-8zm-16-8h-112v-16h112z"></path></g></g></svg>