<svg viewBox="0 0 64 64" xmlns="http://www.w3.org/2000/svg"><g id="File_folder" data-name="File folder"><path d="m47 27v-20-4h-34v8 16z" fill="#005ece"></path><path d="m12.445 27h.555v-16a4 4 0 0 0 -4 4v2h-2a4 4 0 0 0 -4 4v40l5.489-30.593a4 4 0 0 1 3.956-3.407z" fill="#cca400"></path><path d="m55 27v-6a4 4 0 0 0 -4-4v10z" fill="#cca400"></path><path d="m55.511 57.593 4.8-26a4 4 0 0 0 -3.956-4.593h-43.91a4 4 0 0 0 -3.956 3.407l-5.489 30.593h48.555a4 4 0 0 0 3.956-3.407z" fill="#ffcd00"></path><path d="m56.355 27h-4.021a3.942 3.942 0 0 1 -.023.593l-4.8 26a4 4 0 0 1 -3.956 3.407h-39.837l-.718 4h48.555a4 4 0 0 0 3.956-3.407l4.8-26a4 4 0 0 0 -3.956-4.593z" fill="#ebbf00"></path><path d="m47 7h-30v20h30 4v-10-10z" fill="#57a4ff"></path><path d="m26 27h25v-20c0 11.055-11.182 20-25 20z" fill="#2488ff"></path><g fill="#f1f2f2"><path d="m47 14h-26a1 1 0 0 0 0 2h26a1 1 0 0 0 0-2z"></path><path d="m21 10a1 1 0 0 0 0 2h26a1 1 0 0 0 0-2z"></path><path d="m47 18h-26a1 1 0 0 0 0 2h26a1 1 0 0 0 0-2z"></path><path d="m47 22h-26a1 1 0 0 0 0 2h26a1 1 0 0 0 0-2z"></path></g></g></svg>