<svg width="30px" height="30px" id="Icons" viewBox="0 0 60 60" xmlns="http://www.w3.org/2000/svg"><path d="m1 18v-14a3 3 0 0 1 3-3h14.19a5 5 0 0 1 3.2 1.159l3.218 2.682a5 5 0 0 0 3.202 1.159h28.19a3 3 0 0 1 3 3v9z" fill="#e59015"></path><path d="m6 16v-3a3 3 0 0 1 3-3h42a3 3 0 0 1 3 3v3z" fill="#fff"></path><rect fill="#ffbd17" height="38" rx="3" width="58" x="1" y="15"></rect><path d="m26.73 57.81-.38.37a2.758 2.758 0 0 1 -1.98.82h-9.11a1.255 1.255 0 0 1 -1.26-1.26v-9.11a2.758 2.758 0 0 1 .82-1.98l.37-.38 1.81-.27 10 10z" fill="#e3cc93"></path><path d="m43.21 39.07v2.26l-16.48 16.48-3.77-3.77-7.77-7.77 16.48-16.48 2.05-.21z" fill="#3e68c4"></path><path d="m34.965 26.5 2.468-2.468a3.488 3.488 0 0 1 4.952 0l6.584 6.584a3.488 3.488 0 0 1 0 4.952l-2.469 2.467h-1.862l-9.673-9.674z" fill="#e24552"></path><path d="m17.313 40.407h24.904v5.657h-24.904z" fill="#39539b" transform="matrix(.707 -.707 .707 .707 -21.854 33.71)"></path><path d="m36.755 25.758h4.661v16.313h-4.661z" fill="#eaecf4" transform="matrix(.707 -.707 .707 .707 -12.533 37.571)"></path><path d="m56 5h-28.189a4 4 0 0 1 -2.562-.928l-3.218-2.681a6.01 6.01 0 0 0 -3.842-1.391h-14.189a4 4 0 0 0 -4 4v19a1 1 0 0 0 2 0v-5a2 2 0 0 1 2-2h52a2 2 0 0 1 2 2v32a2 2 0 0 1 -2 2h-22.05l15.726-15.726a4.488 4.488 0 0 0 0-6.366l-6.576-6.581a4.454 4.454 0 0 0 -3.177-1.327h-.01a4.478 4.478 0 0 0 -3.187 1.324l-22.618 22.617a3.777 3.777 0 0 0 -1.108 2.688v3.371h-9a2 2 0 0 1 -2-2v-23a1 1 0 0 0 -2 0v23a4 4 0 0 0 4 4h9v3.741a2.262 2.262 0 0 0 2.259 2.259h9.112a3.777 3.777 0 0 0 2.688-1.108l4.891-4.892h24.05a4 4 0 0 0 4-4v-41a4 4 0 0 0 -4-4zm-25.19 47.312-4.083 4.088-2.354-2.354 15.065-15.069 2.354 2.354-10.95 10.949zm2.273-22.518 1.882-1.881 10.122 10.122-1.881 1.882zm.94 3.769-15.064 15.064-2.354-2.354 15.064-15.065zm1.415 1.414 2.585 2.586-15.064 15.064-2.586-2.586zm2.7-10.239a2.513 2.513 0 0 1 3.538 0l6.587 6.587a2.521 2.521 0 0 1 0 3.535l-1.763 1.761-10.121-10.121zm-22.879 33.262a.253.253 0 0 1 -.259-.259v-9.112a1.792 1.792 0 0 1 .241-.892l10.022 10.022a1.792 1.792 0 0 1 -.892.241zm37.741-44h-46v-1a2 2 0 0 1 2-2h42a2 2 0 0 1 2 2zm3 0h-1v-1a4 4 0 0 0 -4-4h-42a4 4 0 0 0 -4 4v1h-1a3.959 3.959 0 0 0 -2 .556v-10.556a2 2 0 0 1 2-2h14.189a4 4 0 0 1 2.562.928l3.218 2.681a6.01 6.01 0 0 0 3.842 1.391h28.189a2 2 0 0 1 2 2v5.556a3.959 3.959 0 0 0 -2-.556z" fill="#262626"></path></svg>