<svg version="1.1" id="Capa_1" xmlns="http://www.w3.org/2000/svg" xmlns:xlink="http://www.w3.org/1999/xlink" x="0px" y="0px" viewBox="0 0 512 512" style="enable-background:new 0 0 512 512;" xml:space="preserve"><path style="fill:#FF9F00;" d="M512,100.949c0-8.275-6.702-14.987-14.978-15l-207.307-0.315l-50.011-49.2 C236.901,33.683,233.13,32,229.201,32H90.522C52.269,32,21,63.406,21,101.659v327.375h491V100.949z"></path><g><path style="fill:#FFD154;" d="M265.027,61.346l-25.322-24.912C236.901,33.683,233.13,32,229.201,32H90.522 C52.269,32,21,63.406,21,101.659v327.375h251.492V68.689L265.027,61.346z"></path><path style="fill:#FFD154;" d="M497.021,167.321l-245.332-0.334l-53.266-64.501C195.574,99.038,191.334,97,186.86,97H72.756 C32.638,97,0,129.721,0,169.839v294.877C0,473,6.716,480,15,480h482c8.284,0,15-7,15-15.284V182.321 C512,174.045,505.297,167.333,497.021,167.321z"></path></g><path style="fill:#FFDF8E;" d="M272.492,167.015l-20.803-0.028l-53.266-64.501C195.574,99.038,191.334,97,186.86,97H72.756 C32.638,97,0,129.721,0,169.839v294.877C0,473,6.716,480,15,480h257.492V167.015z"></path><g><path style="fill:#FF9F00;" d="M231.198,326H84.806c-8.284,0-15,6.716-15,15s6.716,15,15,15h146.393c8.284,0,15-6.716,15-15 S239.482,326,231.198,326z"></path><path style="fill:#FF9F00;" d="M193.152,380H84.806c-8.284,0-15,6.716-15,15s6.716,15,15,15h108.347c8.284,0,15-6.716,15-15 S201.437,380,193.152,380z"></path></g><path style="fill:#383838;" d="M425.286,358.309c-1.386-5.34-5.663-13.266-25.712-20.416c-3.146-1.122-7.959-2.587-13.635-3.855 c8.681-7.075,14.062-17.844,14.062-29.89v-8.105c0-21.259-17.204-38.554-38.539-38.554c-21.258,0-38.461,17.295-38.461,38.554v8.105 c0,12.046,5.582,22.815,14.262,29.89c-5.677,1.268-10.301,2.733-13.448,3.855c-20.049,7.15-24.079,15.076-25.464,20.416 c-0.319,1.231-0.35,2.497-0.35,3.769v39.673c0,8.284,6.466,15.25,14.75,15.25h97.784c8.284,0,15.466-6.966,15.466-15.25v-39.673 C426,360.806,425.605,359.54,425.286,358.309z"></path><path style="fill:#7C8388;" d="M361.461,257.488c-21.258,0-38.461,17.295-38.461,38.554v8.105c0,12.046,5.582,22.815,14.262,29.89 c-5.677,1.268-10.301,2.733-13.448,3.855c-20.049,7.15-24.079,15.076-25.464,20.416c-0.319,1.231-0.35,2.497-0.35,3.769v39.673 c0,8.284,6.466,15.25,14.75,15.25H362L361.461,257.488z"></path></svg>