<svg version="1.1" id="Capa_1" xmlns="http://www.w3.org/2000/svg" xmlns:xlink="http://www.w3.org/1999/xlink" x="0px" y="0px" viewBox="0 0 512 512" style="enable-background:new 0 0 512 512;" xml:space="preserve"><path style="fill:#1689FC;" d="M497,45v422c0,16.5-13.5,30-30,30H45c-16.5,0-30-13.5-30-30V45c0-16.5,13.5-30,30-30h422 C483.5,15,497,28.5,497,45z"></path><path style="fill:#136EF1;" d="M497,45v422c0,16.5-13.5,30-30,30H256V15h211C483.5,15,497,28.5,497,45z"></path><g><path style="fill:#CAE8F9;" d="M256,91c-24.901,0-45,20.099-45,45c0,24.899,20.099,45,45,45s45-20.101,45-45 C301,111.099,280.901,91,256,91z"></path><path style="fill:#CAE8F9;" d="M316,391h-15V226c0-8.401-6.599-15-15-15h-70.201c0,0-3.3,0-19.799,0c-8.401,0-15,6.599-15,15 c0,8.399,6.599,15,15,15h15v150h-15c-8.401,0-15,6.599-15,15c0,8.399,6.599,15,15,15h120c8.401,0,15-6.601,15-15 C331,397.599,324.401,391,316,391z"></path></g><path style="fill:#57555C;" d="M467,0H45C20.099,0,0,20.099,0,45v422c0,24.899,20.099,45,45,45h422c24.901,0,45-20.101,45-45V45 C512,20.099,491.901,0,467,0z M482,467c0,8.399-6.599,15-15,15H45c-8.401,0-15-6.601-15-15V45c0-8.401,6.599-15,15-15h422 c8.401,0,15,6.599,15,15V467z"></path><path style="fill:#3C3A41;" d="M512,45v422c0,24.899-20.099,45-45,45H256v-30h211c8.401,0,15-6.601,15-15V45c0-8.401-6.599-15-15-15 H256V0h211C491.901,0,512,20.099,512,45z"></path><g><path style="fill:#B7E0F6;" d="M256,181V91c24.901,0,45,20.099,45,45C301,160.899,280.901,181,256,181z"></path><path style="fill:#B7E0F6;" d="M331,406c0,8.399-6.599,15-15,15h-60V211h30c8.401,0,15,6.599,15,15v165h15 C324.401,391,331,397.599,331,406z"></path></g></svg>