<svg viewBox="0 0 64 64" xmlns="http://www.w3.org/2000/svg"><g id="photos_android_app_aplication_phone" data-name="photos android app aplication phone"><path d="m60.11 16.636a14.539 14.539 0 0 0 -12.741-12.736 132.374 132.374 0 0 0 -30.73 0 14.537 14.537 0 0 0 -12.739 12.736 132.247 132.247 0 0 0 0 30.728c.01.091.031.179.043.269l19.775-19.776 6.214 6.214 10.358-10.357 20.174 20.174a132.135 132.135 0 0 0 -.354-27.252zm-43.103 4.364a4 4 0 1 1 4-4 4 4 0 0 1 -4 4z" fill="#4370ff"></path><path d="m47.14 5.879a12.477 12.477 0 0 1 10.989 10.986 130.928 130.928 0 0 1 .86 17.058l3.884 3.884a134.7 134.7 0 0 0 -.773-21.407 16.462 16.462 0 0 0 -14.5-14.5 134.86 134.86 0 0 0 -31.2 0 16.462 16.462 0 0 0 -14.5 14.5 134.869 134.869 0 0 0 0 31.2 16.535 16.535 0 0 0 14.5 14.5 134.841 134.841 0 0 0 15.6.9 134.836 134.836 0 0 0 15.6-.9 16.462 16.462 0 0 0 14.5-14.5c.3-2.6.424-4.363.433-4.472l-10.825-10.828-10-10a2 2 0 0 0 -2.828 0l-8.945 8.944-4.8-4.8a2 2 0 0 0 -2.829 0l-16.821 16.811a130.84 130.84 0 0 1 .394-26.39 12.476 12.476 0 0 1 10.988-10.986 130.907 130.907 0 0 1 30.273 0zm-23.424 24.806 4.8 4.8a2 2 0 0 0 2.829 0l8.945-8.945 18.093 18.09c-.08.835-.158 1.669-.255 2.5a12.477 12.477 0 0 1 -10.988 10.991 130.877 130.877 0 0 1 -30.273 0 12.505 12.505 0 0 1 -10.781-9.809z"></path><path d="m11.007 17a6 6 0 1 0 6-6 6.007 6.007 0 0 0 -6 6zm8 0a2 2 0 1 1 -2-2 2 2 0 0 1 2 2z"></path></g></svg>